<svg width="98" height="19" viewBox="0 0 98 19" fill="none" xmlns="http://www.w3.org/2000/svg">
<path d="M14.128 0.803999V18H12.964C12.78 18 12.624 17.968 12.496 17.904C12.376 17.84 12.256 17.732 12.136 17.58L2.188 4.62C2.204 4.82 2.216 5.016 2.224 5.208C2.232 5.4 2.236 5.58 2.236 5.748V18H0.196V0.803999H1.396C1.5 0.803999 1.588 0.811999 1.66 0.827999C1.732 0.835999 1.796 0.855999 1.852 0.887999C1.908 0.911999 1.964 0.951999 2.02 1.008C2.076 1.056 2.136 1.12 2.2 1.2L12.148 14.148C12.132 13.94 12.116 13.74 12.1 13.548C12.092 13.348 12.088 13.16 12.088 12.984V0.803999H14.128ZM21.0521 2.7V8.712H28.1201V10.608H21.0521V18H18.7241V0.803999H29.3201V2.7H21.0521ZM44.1224 2.76H38.5544V18H36.2384V2.76H30.6584V0.803999H44.1224V2.76ZM61.2842 3.492C61.2122 3.612 61.1322 3.704 61.0442 3.768C60.9642 3.824 60.8642 3.852 60.7442 3.852C60.6082 3.852 60.4482 3.784 60.2642 3.648C60.0802 3.512 59.8482 3.364 59.5682 3.204C59.2962 3.036 58.9642 2.884 58.5722 2.748C58.1882 2.612 57.7202 2.544 57.1682 2.544C56.6482 2.544 56.1882 2.616 55.7882 2.76C55.3962 2.896 55.0642 3.084 54.7922 3.324C54.5282 3.564 54.3282 3.848 54.1922 4.176C54.0562 4.496 53.9882 4.844 53.9882 5.22C53.9882 5.7 54.1042 6.1 54.3362 6.42C54.5762 6.732 54.8882 7 55.2722 7.224C55.6642 7.448 56.1042 7.644 56.5922 7.812C57.0882 7.972 57.5922 8.14 58.1042 8.316C58.6242 8.492 59.1282 8.692 59.6162 8.916C60.1122 9.132 60.5522 9.408 60.9362 9.744C61.3282 10.08 61.6402 10.492 61.8722 10.98C62.1122 11.468 62.2322 12.068 62.2322 12.78C62.2322 13.532 62.1042 14.24 61.8482 14.904C61.5922 15.56 61.2162 16.132 60.7202 16.62C60.2322 17.108 59.6282 17.492 58.9082 17.772C58.1962 18.052 57.3842 18.192 56.4722 18.192C55.3522 18.192 54.3362 17.992 53.4242 17.592C52.5122 17.184 51.7322 16.636 51.0842 15.948L51.7562 14.844C51.8202 14.756 51.8962 14.684 51.9842 14.628C52.0802 14.564 52.1842 14.532 52.2962 14.532C52.4002 14.532 52.5162 14.576 52.6442 14.664C52.7802 14.744 52.9322 14.848 53.1002 14.976C53.2682 15.104 53.4602 15.244 53.6762 15.396C53.8922 15.548 54.1362 15.688 54.4082 15.816C54.6882 15.944 55.0042 16.052 55.3562 16.14C55.7082 16.22 56.1042 16.26 56.5442 16.26C57.0962 16.26 57.5882 16.184 58.0202 16.032C58.4522 15.88 58.8162 15.668 59.1122 15.396C59.4162 15.116 59.6482 14.784 59.8082 14.4C59.9682 14.016 60.0482 13.588 60.0482 13.116C60.0482 12.596 59.9282 12.172 59.6882 11.844C59.4562 11.508 59.1482 11.228 58.7642 11.004C58.3802 10.78 57.9402 10.592 57.4442 10.44C56.9482 10.28 56.4442 10.12 55.9322 9.96C55.4202 9.792 54.9162 9.6 54.4202 9.384C53.9242 9.168 53.4842 8.888 53.1002 8.544C52.7162 8.2 52.4042 7.772 52.1642 7.26C51.9322 6.74 51.8162 6.1 51.8162 5.34C51.8162 4.732 51.9322 4.144 52.1642 3.576C52.4042 3.008 52.7482 2.504 53.1962 2.064C53.6522 1.624 54.2082 1.272 54.8642 1.008C55.5282 0.743999 56.2882 0.611999 57.1442 0.611999C58.1042 0.611999 58.9762 0.763999 59.7602 1.068C60.5522 1.372 61.2482 1.812 61.8482 2.388L61.2842 3.492ZM68.0474 18H65.7194V0.803999H68.0474V18ZM84.274 2.76H78.706V18H76.39V2.76H70.81V0.803999H84.274V2.76ZM97.6337 16.104L97.6217 18H87.0257V0.803999H97.6217V2.7H89.3537V8.412H96.0497V10.236H89.3537V16.104H97.6337Z" fill="#4B7CF8"/>
</svg>
